HIERARCHY
ROOT joint_Root
{
	OFFSET 0.0 0.0 0.0
	CHANNELS 6 Xposition Yposition Zposition Zrotation Xrotation Yrotation 
	JOINT Hips
	{
		OFFSET 4.5925 91.4895 -427.239
		CHANNELS 6 Xposition Yposition Zposition Zrotation Xrotation Yrotation 
		JOINT Spine
		{
			OFFSET 15.7357 0.0 0.0
			CHANNELS 6 Xposition Yposition Zposition Zrotation Xrotation Yrotation 
			JOINT Chest
			{
				OFFSET 8.98455 -0.406207 0.0
				CHANNELS 6 Xposition Yposition Zposition Zrotation Xrotation Yrotation 
				JOINT Neck
				{
					OFFSET 16.3773 0.0 0.0
					CHANNELS 6 Xposition Yposition Zposition Zrotation Xrotation Yrotation 
					JOINT Head
					{
						OFFSET 6.45672 0.0 0.0
						CHANNELS 6 Xposition Yposition Zposition Zrotation Xrotation Yrotation 
						End Site
						{
							OFFSET 0.0 0.0 0.0
						}
					}
				}
				JOINT Shoulder_L
				{
					OFFSET 12.9942 -0.242716 4.98039
					CHANNELS 6 Xposition Yposition Zposition Zrotation Xrotation Yrotation 
					JOINT UpperArm_L
					{
						OFFSET 5.34809 0.0 0.0
						CHANNELS 6 Xposition Yposition Zposition Zrotation Xrotation Yrotation 
						JOINT LowerArm_L
						{
							OFFSET 24.3286 1.87007e-05 0.0
							CHANNELS 6 Xposition Yposition Zposition Zrotation Xrotation Yrotation 
							JOINT Hand_L
							{
								OFFSET 22.2916 0.0 0.0
								CHANNELS 6 Xposition Yposition Zposition Zrotation Xrotation Yrotation 
								End Site
								{
									OFFSET 0.0 0.0 0.0
								}
							}
						}
					}
				}
				JOINT Shoulder_R
				{
					OFFSET 12.9945 -0.242716 -4.98039
					CHANNELS 6 Xposition Yposition Zposition Zrotation Xrotation Yrotation 
					JOINT UpperArm_R
					{
						OFFSET -5.34813 0.0 0.0
						CHANNELS 6 Xposition Yposition Zposition Zrotation Xrotation Yrotation 
						JOINT LowerArm_R
						{
							OFFSET -24.3289 0.000322201 0.0
							CHANNELS 6 Xposition Yposition Zposition Zrotation Xrotation Yrotation 
							JOINT Hand_R
							{
								OFFSET -22.2915 -0.000108084 0.0
								CHANNELS 6 Xposition Yposition Zposition Zrotation Xrotation Yrotation 
								End Site
								{
									OFFSET 0.0 0.0 0.0
								}
							}
						}
					}
				}
			}
		}
		JOINT UpperLeg_L
		{
			OFFSET -2.19248 -6.46944 0.0
			CHANNELS 6 Xposition Yposition Zposition Zrotation Xrotation Yrotation 
			JOINT LowerLeg_L
			{
				OFFSET 39.0811 0.0 -1.23785e-05
				CHANNELS 6 Xposition Yposition Zposition Zrotation Xrotation Yrotation 
				JOINT Foot_L
				{
					OFFSET 40.9854 0.0 -1.26872e-05
					CHANNELS 6 Xposition Yposition Zposition Zrotation Xrotation Yrotation 
					JOINT Toes_L
					{
						OFFSET 11.7543 0.0 0.0
						CHANNELS 6 Xposition Yposition Zposition Zrotation Xrotation Yrotation 
						End Site
						{
							OFFSET 0.0 0.0 0.0
						}
					}
				}
			}
		}
		JOINT UpperLeg_R
		{
			OFFSET -2.19251 6.46944 0.0
			CHANNELS 6 Xposition Yposition Zposition Zrotation Xrotation Yrotation 
			JOINT LowerLeg_R
			{
				OFFSET -39.0811 -0.00228153 -0.0401928
				CHANNELS 6 Xposition Yposition Zposition Zrotation Xrotation Yrotation 
				JOINT Foot_R
				{
					OFFSET -40.9854 0.0 0.0
					CHANNELS 6 Xposition Yposition Zposition Zrotation Xrotation Yrotation 
					JOINT Toes_R
					{
						OFFSET -11.7543 0.0 0.0
						CHANNELS 6 Xposition Yposition Zposition Zrotation Xrotation Yrotation 
						End Site
						{
							OFFSET 0.0 0.0 0.0
						}
					}
				}
			}
		}
	}
}
MOTION
Frames:	6
Frame Time:	0.0333333
0.000000 0.000000 0.000000 0.000000 0.000000 -0.000000 -1.841030 90.707300 -3.559140 88.781100 -0.843864 12.982300 15.735700 0.000005 -0.000001 90.037100 76.197700 -90.003600 8.984550 -0.406207 -0.000000 19.838600 0.020967 0.063401 16.377300 -0.000001 -0.000001 7.058910 -3.778020 1.355310 6.456720 -0.000001 -0.000000 -9.770050 -3.815260 2.246550 12.994200 -0.242716 4.980390 -91.302900 7.002450 -79.432600 5.348090 -0.000007 -0.000001 -59.763200 31.682100 -27.261300 24.328600 0.000019 0.000005 12.559400 24.872800 -27.908800 22.291600 -0.000001 0.000005 9.052120 5.241460 1.657450 12.994500 -0.242716 -4.980390 88.959000 10.786900 -84.454500 -5.348130 -0.000001 -0.000004 -54.540900 35.384000 -25.219400 -24.328900 0.000322 -0.000009 2.998290 6.552400 -24.663100 -22.291500 -0.000108 -0.000004 19.103800 5.427550 -3.855070 -2.192480 -6.469440 -0.000000 -172.174000 -13.118800 -0.974068 39.081100 -0.000007 -0.000012 -0.179796 0.281162 32.598200 40.985400 -0.000006 -0.000013 -0.729264 5.546590 -68.022400 11.754300 -0.000000 0.000003 -0.000178 -0.001679 -16.641100 -2.192510 6.469440 -0.000001 173.625000 24.675400 -178.277000 -39.081100 -0.002282 -0.040193 -0.201801 0.336804 31.340000 -40.985400 0.000008 0.000006 4.498420 14.608400 -69.354100 -11.754300 -0.000006 -0.000006 -0.002558 -0.035493 -18.016400
0.000000 0.000000 0.000000 0.000000 0.000000 -0.000000 -1.839170 90.700200 -3.581140 88.773700 -0.838143 13.025700 15.735700 0.000005 -0.000001 90.043900 76.189700 -90.008600 8.984550 -0.406207 -0.000000 19.854600 0.024381 0.066502 16.377300 -0.000001 -0.000001 7.130830 -3.756290 1.382820 6.456720 -0.000001 -0.000000 -9.810490 -3.805480 2.254570 12.994200 -0.242716 4.980390 -91.289500 6.943700 -79.452800 5.348090 -0.000007 -0.000001 -59.908200 31.576400 -27.026200 24.328600 0.000019 0.000005 12.850900 24.297400 -29.004800 22.291600 -0.000001 0.000005 9.043520 5.249160 1.454850 12.994500 -0.242716 -4.980390 88.964700 10.764800 -84.473900 -5.348130 -0.000001 -0.000004 -54.522700 35.396600 -25.227100 -24.328900 0.000322 -0.000009 2.991320 6.527580 -24.694500 -22.291500 -0.000108 -0.000004 19.106000 5.426760 -3.828060 -2.192480 -6.469440 -0.000000 -172.166000 -13.112100 -0.970763 39.081100 -0.000007 -0.000012 -0.177438 0.276998 32.643000 40.985400 -0.000006 -0.000013 -0.721643 5.544520 -68.028500 11.754300 -0.000000 0.000003 -0.000179 -0.001685 -16.641300 -2.192510 6.469440 -0.000001 173.617000 24.678500 -178.268000 -39.081100 -0.002282 -0.040193 -0.203205 0.338605 31.377900 -40.985400 0.000008 0.000006 4.508760 14.619100 -69.356100 -11.754300 -0.000006 -0.000006 -0.002656 -0.036648 -18.063400
0.000000 0.000000 0.000000 0.000000 0.000000 -0.000000 -1.839530 90.699200 -3.600120 88.781100 -0.858129 13.044300 15.735700 0.000005 -0.000001 90.078700 76.188400 -90.047300 8.984550 -0.406207 -0.000000 19.857100 0.040371 0.055899 16.377300 -0.000001 -0.000001 7.201160 -3.755960 1.425150 6.456720 -0.000001 -0.000000 -9.827370 -3.813910 2.242410 12.994200 -0.242716 4.980390 -91.293100 6.938190 -79.415700 5.348090 -0.000007 -0.000001 -60.037100 31.396100 -26.868400 24.328600 0.000019 0.000005 13.176500 23.755000 -30.164100 22.291600 -0.000001 0.000005 9.071580 5.256730 1.254120 12.994500 -0.242716 -4.980390 88.971900 10.736700 -84.497700 -5.348130 -0.000001 -0.000004 -54.527900 35.392300 -25.231100 -24.328900 0.000322 -0.000009 2.994160 6.541640 -24.668600 -22.291500 -0.000108 -0.000004 19.100800 5.427470 -3.852670 -2.192480 -6.469440 -0.000000 -172.164000 -13.136100 -0.956512 39.081100 -0.000007 -0.000012 -0.178224 0.278200 32.645300 40.985400 -0.000006 -0.000013 -0.718935 5.545480 -68.023300 11.754300 -0.000000 0.000003 -0.000173 -0.001638 -16.639600 -2.192510 6.469440 -0.000001 173.614000 24.647300 -178.273000 -39.081100 -0.002282 -0.040193 -0.204420 0.340409 31.392000 -40.985400 0.000008 0.000006 4.503140 14.593800 -69.347700 -11.754300 -0.000006 -0.000006 -0.002499 -0.034797 -17.988100
0.000000 0.000000 0.000000 0.000000 0.000000 -0.000000 -1.837010 90.700200 -3.622260 88.786800 -0.830539 13.048200 15.735700 0.000005 -0.000001 90.113200 76.195400 -90.081200 8.984550 -0.406207 -0.000000 19.843000 0.056706 0.054302 16.377300 -0.000001 -0.000001 7.290610 -3.782900 1.483710 6.456720 -0.000001 -0.000000 -9.840070 -3.863400 2.218950 12.994200 -0.242716 4.980390 -91.291900 6.938450 -79.425500 5.348090 -0.000007 -0.000001 -60.407100 30.871200 -26.610800 24.328600 0.000019 0.000005 13.703600 23.460400 -31.486800 22.291600 -0.000001 0.000005 9.199780 5.261230 1.134090 12.994500 -0.242716 -4.980390 88.967600 10.715600 -84.464100 -5.348130 -0.000001 -0.000004 -54.535400 35.397800 -25.208100 -24.328900 0.000322 -0.000009 2.995680 6.539850 -24.685600 -22.291500 -0.000108 -0.000004 19.037400 5.425130 -3.772650 -2.192480 -6.469440 -0.000000 -172.178000 -13.112000 -0.980088 39.081100 -0.000007 -0.000012 -0.177819 0.277599 32.642300 40.985400 -0.000006 -0.000013 -0.719138 5.547530 -67.996800 11.754300 -0.000000 0.000003 -0.000177 -0.001668 -16.640700 -2.192510 6.469440 -0.000001 173.609000 24.681500 -178.287000 -39.081100 -0.002282 -0.040193 -0.201270 0.335182 31.396900 -40.985400 0.000008 0.000006 4.514540 14.609300 -69.336600 -11.754300 -0.000006 -0.000006 -0.002488 -0.034669 -17.982900
0.000000 0.000000 0.000000 0.000000 0.000000 -0.000000 -1.839590 90.701500 -3.642420 88.787000 -0.816166 13.090800 15.735700 0.000005 -0.000001 90.117600 76.191800 -90.089300 8.984550 -0.406207 -0.000000 19.850300 0.058400 0.046459 16.377300 -0.000001 -0.000001 7.408630 -3.790950 1.523730 6.456720 -0.000001 -0.000000 -9.868600 -3.897840 2.230170 12.994200 -0.242716 4.980390 -91.291600 6.907760 -79.382500 5.348090 -0.000007 -0.000001 -60.734700 30.341300 -26.456100 24.328600 0.000019 0.000005 14.049500 22.862800 -32.785500 22.291600 -0.000001 0.000005 9.566160 5.262660 1.095760 12.994500 -0.242716 -4.980390 88.971300 10.682800 -84.467200 -5.348130 -0.000001 -0.000004 -54.602000 35.378500 -25.141100 -24.328900 0.000322 -0.000009 2.987080 6.523390 -24.677500 -22.291500 -0.000108 -0.000004 19.028400 5.425230 -3.776130 -2.192480 -6.469440 -0.000000 -172.167000 -13.118300 -0.945474 39.081100 -0.000007 -0.000012 -0.178742 0.279106 32.636200 40.985400 -0.000006 -0.000013 -0.713018 5.565030 -67.982000 11.754300 -0.000000 0.000003 -0.000162 -0.001546 -16.636200 -2.192510 6.469440 -0.000001 173.590000 24.678000 -178.246000 -39.081100 -0.002282 -0.040193 -0.202685 0.337577 31.391100 -40.985400 0.000008 0.000006 4.511590 14.606000 -69.324100 -11.754300 -0.000006 -0.000006 -0.002674 -0.036861 -18.072100
0.000000 0.000000 0.000000 0.000000 0.000000 -0.000000 -1.835950 90.695900 -3.671900 88.806000 -0.802674 13.073700 15.735700 0.000005 -0.000001 90.110100 76.209000 -90.091000 8.984550 -0.406207 -0.000000 19.815900 0.053838 0.028894 16.377300 -0.000001 -0.000001 7.530770 -3.801360 1.555120 6.456720 -0.000001 -0.000000 -9.870130 -3.916260 2.217550 12.994200 -0.242716 4.980390 -91.284600 6.861780 -79.369900 5.348090 -0.000007 -0.000001 -60.878700 29.877800 -26.447300 24.328600 0.000019 0.000005 14.398000 22.191200 -34.203700 22.291600 -0.000001 0.000005 9.579910 5.265810 1.011250 12.994500 -0.242716 -4.980390 88.980200 10.639600 -84.492800 -5.348130 -0.000001 -0.000004 -54.665800 35.372900 -25.064200 -24.328900 0.000322 -0.000009 3.005360 6.567750 -24.663700 -22.291500 -0.000108 -0.000004 19.061900 5.426340 -3.813880 -2.192480 -6.469440 -0.000000 -172.191000 -13.133900 -0.998799 39.081100 -0.000007 -0.000012 -0.180474 0.281547 32.660500 40.985400 -0.000006 -0.000013 -0.701830 5.588340 -67.971600 11.754300 -0.000000 0.000003 -0.000167 -0.001589 -16.637800 -2.192510 6.469440 -0.000001 173.596000 24.658500 -178.318000 -39.081100 -0.002282 -0.040193 -0.202079 0.335925 31.441000 -40.985400 0.000008 0.000006 4.509000 14.566800 -69.325600 -11.754300 -0.000006 -0.000006 -0.002733 -0.037540 -18.099700
